<?xml version="1.0" encoding="UTF-8" standalone="no"?>
<svg
   width="2101.5801"
   height="320"
   viewBox="0 0 556.04304 84.666662"
   version="1.1"
   id="svg1"
   xmlns="http://www.w3.org/2000/svg"
   xmlns:svg="http://www.w3.org/2000/svg">
  <defs id="defs1" />
  <g id="layer1">
    <path
       id="path3"
       style="fill:#ffffff;fill-opacity:1;stroke-width:10.5833;paint-order:markers stroke fill"
       d="M 42.333333,5.2916667 A 37.041668,37.041668 0 0 0 5.2916667,42.333333 37.041668,37.041668 0 0 0 16.309599,68.357068 L 0,84.666667 H 5.2916667 L 23.8125,66.145833 21.166667,84.666667 h 7.9375 l 0.727087,-7.562846 0.433565,-4.505668 0.464055,-4.827613 -5.17e-4,-5.16e-4 L 35.71875,15.875 46.10623,5.4875203 A 37.041668,37.041668 0 0 0 42.333333,5.2916667 Z M 53.239644,6.937561 55.5625,9.2604167 V 66.145833 L 37.041667,84.666667 h 5.291666 L 60.854167,66.145833 v 8.141622 10.379212 H 79.375 84.666667 L 68.38704,68.38704 A 37.041668,37.041668 0 0 0 79.375,42.333333 37.041668,37.041668 0 0 0 53.239644,6.937561 Z m -10.014375,7.05435 c -0.514276,-0.0035 -1.125385,0.291846 -1.782321,0.906921 -1.81784,1.702008 -3.412124,5.332567 -3.646805,8.273397 -0.243094,3.046258 1.039812,4.417096 2.962093,2.891296 2.027877,-1.609616 3.864865,-5.695978 3.995105,-8.928137 0.08223,-2.040624 -0.546275,-3.136786 -1.528072,-3.143477 z" />
    <path
       id="text2"
       style="font-size:75.9531px;line-height:0;font-family:'Russo One';-inkscape-font-specification:'Russo One';fill:#ffffff;stroke-width:12.5508;paint-order:markers stroke fill"
       d="m 300.66287,14.9903 c -5.31671,0 -9.19049,1.215274 -11.62099,3.645772 -2.37986,2.379862 -3.56981,6.228318 -3.56981,11.545032 V 54.48608 c 0,5.316714 1.18995,9.189982 3.56981,11.62048 2.4305,2.379862 6.30428,3.569808 11.62099,3.569808 h 18.98799 c 5.31671,0 9.16516,-1.189946 11.54503,-3.569808 2.43049,-2.430498 3.64577,-6.303766 3.64577,-11.62048 V 30.181104 c 0,-5.316714 -1.21528,-9.16517 -3.64577,-11.545032 -2.37987,-2.430498 -6.22832,-3.645772 -11.54503,-3.645772 z m -190.2628,0.759643 c -5.31673,0 -9.18998,1.215275 -11.620477,3.645773 -2.37986,2.379863 -3.56981,6.228318 -3.56981,11.545032 v 24.304976 c 0,4.962266 1.16462,8.607573 3.49384,10.9368 2.329227,2.329227 5.974547,3.493844 10.936797,3.493844 7.4434,0 16.81099,-0.506064 28.10268,-1.518771 V 57.90396 c -3.2913,0.202541 -6.0506,0.379844 -8.27856,0.53175 -2.17732,0.151908 -3.97517,0.253227 -5.39296,0.303857 -1.36716,0.05064 -2.73389,0.100782 -4.10104,0.151412 -1.36715,0.05064 -2.68374,0.101299 -3.94963,0.151929 h -3.49384 c -1.06334,0 -1.94985,-0.32876 -2.65875,-0.98702 -0.65826,-0.708895 -0.98702,-1.645551 -0.98702,-2.810164 V 30.940748 c 0,-3.038123 1.51869,-4.557345 4.55682,-4.557345 h 29.777 l -5.47202,-10.63346 z m 32.81505,10.63346 14.65595,28.482499 v 14.051339 h 13.67152 V 54.865902 L 191.67004,15.749943 H 177.23888 L 164.70683,41.57369 152.17426,15.749943 h -14.43064 z m 63.64573,-10.63346 c -5.31671,0 -9.19051,1.215275 -11.621,3.645773 -2.37987,2.379863 -3.56981,6.228318 -3.56981,11.545032 v 24.304976 c 0,4.962266 1.16461,8.607573 3.49384,10.9368 2.32923,2.329227 5.97505,3.493844 10.93732,3.493844 7.4434,0 16.81099,-0.506064 28.10268,-1.518771 V 57.90396 c -3.29129,0.202541 -6.05112,0.379844 -8.27908,0.53175 -2.17732,0.151908 -3.97465,0.253227 -5.39244,0.303857 -1.36715,0.05064 -2.73441,0.100782 -4.10156,0.151412 -1.36715,0.05064 -2.68374,0.101299 -3.94963,0.151929 h -3.49384 c -1.06334,0 -1.94934,-0.32876 -2.65824,-0.98702 -0.65826,-0.708895 -0.98753,-1.645551 -0.98753,-2.810164 V 30.940748 c 0,-3.038123 1.51921,-4.557345 4.55734,-4.557345 h 30.38109 v 42.533838 h 41.39438 V 58.283781 H 253.95151 V 15.749943 h -13.67152 z m 135.57622,0 v 53.167298 h 13.67151 V 53.726437 h 18.22835 c 5.31671,0 9.16517,-1.189945 11.54503,-3.569808 2.4305,-2.430498 3.64577,-6.304282 3.64577,-11.620996 v -7.594885 c 0,-5.316714 -1.21527,-9.165169 -3.64577,-11.545032 -2.37986,-2.430498 -6.22832,-3.645773 -11.54503,-3.645773 z m 53.92642,0 v 53.167298 h 42.15402 v -10.63346 h -28.4825 V 47.2705 h 22.40638 V 36.637041 H 410.03501 V 26.383403 h 28.4825 v -10.63346 z m 42.15402,53.167298 h 14.81098 l 3.41788,-9.494511 h 18.98799 l 3.41788,9.494511 h 14.81098 13.67151 V 26.383403 h 18.22887 v 42.533838 h 14.43064 V 15.749943 h -46.33102 v 42.533838 h -4.0256 L 473.83576,15.749943 h -15.1908 z M 303.70093,25.623759 h 12.91187 c 3.03812,0 4.55735,1.519223 4.55735,4.557345 V 54.48608 c 0,3.038123 -1.51923,4.556828 -4.55735,4.556828 h -12.91187 c -3.03812,0 -4.55735,-1.518705 -4.55735,-4.556828 V 30.181104 c 0,-3.038122 1.51923,-4.557345 4.55735,-4.557345 z m 52.40765,0.759644 h 15.19029 c 3.03812,0 4.55734,1.519222 4.55734,4.557345 v 7.594885 c 0,3.038123 -1.51922,4.557344 -4.55734,4.557344 h -15.19029 z m 110.13178,5.316471 6.07612,17.84904 h -12.15223 z" />
  </g>
</svg>
