<?xml version="1.0" encoding="UTF-8" standalone="no"?>
<svg
   version="1.1"
   width="2212.8054"
   height="519.1297"
   viewBox="-0.5 -0.5 2212.8053 519.1297"
   id="svg17"
   xmlns:xlink="http://www.w3.org/1999/xlink"
   xmlns="http://www.w3.org/2000/svg"
   xmlns:svg="http://www.w3.org/2000/svg">
  <defs
     id="defs1">
    <linearGradient
       id="linearGradient3">
      <stop
         style="stop-color:#cc3333;stop-opacity:1;"
         offset="0"
         id="stop2" />
      <stop
         style="stop-color:#ffa710;stop-opacity:1;"
         offset="1"
         id="stop3" />
    </linearGradient>
    <style
       type="text/css"
       id="style1">@import url(https://fonts.googleapis.com/css2?family=Bebas+Neue:wght@400;500);
</style>
    <linearGradient
       xlink:href="#linearGradient3"
       id="linearGradient2"
       x1="218.53358"
       y1="464.5"
       x2="267.92484"
       y2="70.418854"
       gradientUnits="userSpaceOnUse" />
  </defs>
  <g
     id="g37"
     style="display:inline"
     transform="translate(-103.6048,18.707199)">
    <path
       id="path38"
       style="display:inline;fill:none;fill-opacity:1;fill-rule:nonzero;stroke:#ffffff;stroke-width:60;stroke-linecap:square;stroke-dasharray:none;stroke-opacity:1"
       d="m 189.5,-0.5 -120,70 -70,360 h 229.99999 v -360 h -43.2558 z"
       transform="translate(140,35)" />
    <path
       id="path37"
       style="display:inline;fill:none;fill-opacity:1;fill-rule:nonzero;stroke:#000000;stroke-width:20;stroke-linecap:square;stroke-dasharray:none;stroke-opacity:1"
       d="m 189.5,-0.5 -120,70 -70,360 h 229.99999 v -360 h -43.2558 z"
       transform="translate(140,35)" />
    <path
       style="display:inline;fill:#000000;fill-opacity:1;stroke:#ee2277;stroke-width:0;stroke-linecap:square;stroke-linejoin:round;paint-order:markers stroke fill"
       d="m 209.5,104.5 h 159.99999 v 360 H 209.5 Z"
       id="path24" />
    <g
       id="g36"
       style="display:inline">
      <path
         style="fill:url(#linearGradient2);fill-opacity:1;stroke:#000000;stroke-width:0.1;stroke-linecap:square;stroke-linejoin:round;stroke-dasharray:none;stroke-opacity:1;paint-order:markers fill stroke"
         d="M 209.5,104.5 233.9075,90.262293 264.18354,72.601268 295.32781,54.433776 329.5,34.5 l -19.5,430 -170.5,0 12.07655,-62.10796 10.83234,-55.7092 18.62935,-95.80809 15.44655,-79.43937 6.77417,-34.83862 z"
         id="path31" />
      <path
         style="fill:#000000;fill-opacity:1;stroke:#ee2277;stroke-width:0;stroke-linecap:square;stroke-linejoin:round;paint-order:markers stroke fill"
         d="M 260.48348,74.759636 267.92482,70.418852 218.53359,464.5 h -10.46334 z"
         id="path32" />
      <path
         style="fill:#000000;fill-opacity:1;stroke:#ee2277;stroke-width:0;stroke-linecap:square;stroke-linejoin:round;paint-order:markers stroke fill"
         d="M 230.60485,92.188838 237.39214,88.229585 176.35498,464.5 l -9.11147,0 z"
         id="path33" />
      <path
         style="fill:#000000;fill-opacity:1;stroke:#ee2277;stroke-width:0;stroke-linecap:square;stroke-linejoin:round;paint-order:markers stroke fill"
         d="M 293.29695,55.618445 301.49166,50.838201 267.27909,464.5 h -12.14002 z"
         id="path34" />
      <path
         style="fill:#000000;fill-opacity:1;stroke:#ee2277;stroke-width:0;stroke-linecap:square;stroke-linejoin:round;paint-order:markers stroke fill"
         d="m 203.25896,136.59676 24.15011,3.00295 -30.92428,31.83567"
         id="path35" />
      <path
         style="display:inline;fill:#000000;fill-opacity:1;stroke:#ee2277;stroke-width:0;stroke-linecap:square;stroke-linejoin:round;paint-order:markers stroke fill"
         d="m 162.40889,346.68284 27.39859,21.8714 -38.23093,33.8378"
         id="path36" />
      <path
         style="display:none;fill:#000000;fill-opacity:1;stroke:#ee2277;stroke-width:0;stroke-linecap:square;stroke-linejoin:round;paint-order:markers stroke fill"
         d="m 186.05563,225.07103 25.67764,9.97796 -34.03984,33.02768"
         id="path39" />
    </g>
    <g
       id="text39"
       style="font-size:369.333px;line-height:0;font-family:'Bebas Neue';-inkscape-font-specification:'Bebas Neue';white-space:pre;display:inline;stroke:#ffffff;stroke-width:27.2453;stroke-linecap:square;stroke-dasharray:none;stroke-opacity:1;paint-order:markers stroke fill"
       transform="matrix(1.4681409,0,0,1.4681409,-147.96627,332.78267)"
       aria-label="DnDungeon">
      <path
         d="m 400.14265,-162.00454 h 62.04795 q 30.28531,0 45.42796,16.25065 15.14265,16.25065 15.14265,47.643959 V 32.633954 q 0,31.393306 -15.14265,47.643958 -15.14265,16.250652 -45.42796,16.250652 h -62.04795 z m 61.30928,221.599804 q 9.97199,0 15.14266,-5.909328 5.53999,-5.909329 5.53999,-19.205317 V -99.956596 q 0,-13.295984 -5.53999,-19.205314 -5.17067,-5.90933 -15.14266,-5.90933 H 440.76928 V 59.595264 Z"
         id="path41"
         style="stroke:#ffffff;stroke-width:27.2453;stroke-dasharray:none;stroke-opacity:1" />
      <path
         style="font-size:245.333px;stroke:#ffffff;stroke-width:27.2453;stroke-dasharray:none;stroke-opacity:1"
         d="m 545.0079,-118.60454 h 33.85595 l 26.25064,102.794529 h 0.49066 V -118.60454 h 24.04263 V 53.128559 H 601.92516 L 569.5412,-72.2366 h -0.49066 V 53.128559 H 545.0079 Z"
         id="path42" />
      <path
         d="m 654.8491,-162.00454 h 62.04795 q 30.28531,0 45.42796,16.25065 15.14265,16.25065 15.14265,47.643959 V 32.633954 q 0,31.393306 -15.14265,47.643958 -15.14265,16.250652 -45.42796,16.250652 H 654.8491 Z m 61.30928,221.599804 q 9.972,0 15.14266,-5.909328 5.53999,-5.909329 5.53999,-19.205317 V -99.956596 q 0,-13.295984 -5.53999,-19.205314 -5.17066,-5.90933 -15.14266,-5.90933 H 695.47574 V 59.595264 Z m 147.73326,40.626626 q -29.54665,0 -45.05863,-16.619981 Q 803.32102,66.612591 803.32102,35.219285 V -162.00454 h 40.62663 V 38.173949 q 0,13.295988 5.17066,19.205317 5.54,5.909328 15.51199,5.909328 9.97199,0 15.14265,-5.909328 5.54,-5.909329 5.54,-19.205317 V -162.00454 h 39.1493 V 35.219285 q 0,31.393306 -15.51199,48.382624 -15.51198,16.619981 -45.05862,16.619981 z m 89.37876,-262.22643 h 50.968 l 39.5186,154.7505293 h 0.7387 V -162.00454 h 36.1946 V 96.528564 h -41.7346 l -48.752,-188.729167 h -0.73867 V 96.528564 H 953.2704 Z m 215.3211,262.22643 q -29.5466,0 -45.0586,-16.619981 -15.512,-16.989318 -15.512,-48.382624 V -100.69526 q 0,-31.39331 15.512,-48.01329 15.512,-16.98932 45.0586,-16.98932 29.5467,0 45.0587,16.98932 15.512,16.61998 15.512,48.01329 v 22.159979 h -38.4107 v -24.745309 q 0,-25.48398 -21.052,-25.48398 -21.0519,0 -21.0519,25.48398 V 38.173949 q 0,25.114645 21.0519,25.114645 21.052,0 21.052,-25.114645 v -50.598622 h -20.3133 v -36.933301 h 58.724 v 84.577259 q 0,31.393306 -15.512,48.382624 -15.512,16.619981 -45.0587,16.619981 z m 86.7936,-262.22643 h 110.7999 v 36.9333 h -70.1733 v 68.326606 h 55.7693 v 36.933301 h -55.7693 v 79.406597 h 70.1733 v 36.9333 h -110.7999 z m 192.7922,262.22643 q -29.916,0 -45.7973,-16.989314 -15.8813,-16.989318 -15.8813,-48.013291 V -100.69526 q 0,-31.02397 15.8813,-48.01329 15.8813,-16.98932 45.7973,-16.98932 29.9159,0 45.7973,16.98932 15.8813,16.98932 15.8813,48.01329 V 35.219285 q 0,31.023973 -15.8813,48.013291 -15.8814,16.989314 -45.7973,16.989314 z m 0,-36.933296 q 21.052,0 21.052,-25.483978 V -103.28059 q 0,-25.48398 -21.052,-25.48398 -21.052,0 -21.052,25.48398 V 37.804616 q 0,25.483978 21.052,25.483978 z m 89.0091,-225.293134 h 50.9679 l 39.5186,154.7505293 h 0.7387 V -162.00454 h 36.1946 V 96.528564 h -41.7346 l -48.7519,-188.729167 h -0.7387 V 96.528564 h -36.1946 z"
         id="path43"
         style="stroke:#ffffff;stroke-width:27.2453;stroke-dasharray:none;stroke-opacity:1" />
    </g>
  </g>
</svg>
